<svg xmlns="http://www.w3.org/2000/svg" viewBox="0 0 16.528 20.369">
  <g id="シンボル_2_1" data-name="シンボル 2 – 1" transform="translate(-296.417 -14.417)">
    <g id="グループ化_1915" data-name="グループ化 1915" transform="translate(300.739 15)">
      <circle id="楕円形_205" data-name="楕円形 205" cx="3.84" cy="3.84" r="3.84" transform="translate(0.102)" fill="rgba(197,46,46,0)" stroke="#fff" stroke-miterlimit="10" stroke-width="1.167"/>
      <path id="パス_316" data-name="パス 316" d="M3.942,0A3.868,3.868,0,0,1,7.884,3.79a3.868,3.868,0,0,1-3.942,3.79A3.868,3.868,0,0,1,0,3.79,3.868,3.868,0,0,1,3.942,0Z" transform="translate(0)" fill="#fff"/>
    </g>
    <g id="グループ化_1914" data-name="グループ化 1914" transform="translate(297 25.424)">
      <path id="パス_281" data-name="パス 281" d="M18.278,16.945V13.653a5.486,5.486,0,0,0-5.486-5.486H8.4a5.486,5.486,0,0,0-5.486,5.486v3.292Z" transform="translate(-2.917 -8.167)" fill="none" stroke="#fff" stroke-linecap="round" stroke-linejoin="round" stroke-miterlimit="10" stroke-width="1.167"/>
      <path id="パス_285" data-name="パス 285" d="M531.438,321.306l15.118-.2.183-3.6-1.686-3.373-3.17-1.321h-6.258l-2.865,1.707v.1l-1.077,2.52-.244,1.91.244,2.052Z" transform="translate(-531.438 -312.67)" fill="#fff"/>
    </g>
  </g>
</svg>
